<?xml version="1.0" standalone="no"?>
<!DOCTYPE svg PUBLIC "-//W3C//DTD SVG 20010904//EN"
 "http://www.w3.org/TR/2001/REC-SVG-20010904/DTD/svg10.dtd">
<svg version="1.0" xmlns="http://www.w3.org/2000/svg"
 width="354.000000pt" height="354.000000pt" viewBox="0 0 354.000000 354.000000"
 preserveAspectRatio="xMidYMid meet">
<metadata>
Created by potrace 1.16, written by Peter Selinger 2001-2019
</metadata>
<g transform="translate(0.000000,354.000000) scale(0.100000,-0.100000)"
fill="#000000" stroke="none">
<path d="M0 1770 l0 -1770 1770 0 1770 0 0 1770 0 1770 -1770 0 -1770 0 0
-1770z m2100 398 c99 -295 180 -549 180 -563 0 -25 -25 -126 -56 -224 -8 -25
-12 -46 -10 -48 2 -3 102 292 221 654 119 362 222 673 228 691 l11 32 123 0
123 0 0 -735 0 -735 -120 0 -120 0 0 359 0 360 44 133 c74 223 146 449 146
455 0 20 -17 -23 -69 -178 -52 -154 -141 -411 -255 -739 -20 -58 -58 -168 -85
-245 l-48 -140 -112 -3 c-61 -1 -111 -1 -111 1 0 1 -52 156 -116 342 -64 187
-122 358 -129 380 -12 35 -14 -9 -14 -342 l-1 -383 -125 0 -125 0 0 735 0 736
120 -3 121 -3 179 -537z m-450 -198 l0 -730 -115 0 -115 0 0 508 0 508 36 69
c20 39 56 108 81 155 127 238 -31 -29 -588 -994 -76 -132 -142 -243 -146 -246
-5 -4 -51 -5 -104 -1 l-96 6 109 195 c60 107 125 224 145 260 38 70 149 269
382 685 81 143 152 272 160 288 l14 27 119 0 118 0 0 -730z m1260 -815 c0 -7
-395 -11 -1160 -13 -1028 -2 -1160 0 -1160 13 0 13 132 15 1160 13 765 -2
1160 -6 1160 -13z m-1929 -103 c44 -40 44 -95 -1 -135 -29 -26 -38 -29 -82
-25 -56 6 -74 20 -87 65 -7 24 -5 40 7 65 32 63 110 77 163 30z m162 -47 l55
-75 -5 75 c-5 65 -4 75 11 75 14 0 16 -14 16 -95 0 -73 -3 -95 -14 -95 -7 0
-37 34 -67 76 l-54 75 -3 -76 c-2 -54 -6 -75 -15 -72 -8 2 -13 35 -15 95 -3
84 -1 92 16 92 12 0 40 -28 75 -75z m585 59 c25 -17 28 -42 8 -69 -11 -16 -11
-23 -1 -40 22 -35 28 -65 12 -65 -8 0 -21 18 -30 40 -13 35 -20 40 -46 40 -30
0 -31 -2 -31 -41 0 -28 -4 -39 -12 -37 -13 5 -24 148 -14 175 7 18 86 17 114
-3z m892 1 c59 -30 68 -98 21 -146 -24 -24 -38 -29 -76 -29 -38 0 -52 5 -76
29 -82 82 25 201 131 146z m174 -57 l51 -67 3 69 c2 53 6 70 17 70 12 0 15
-18 15 -95 0 -74 -3 -95 -14 -95 -7 0 -39 34 -70 75 -31 41 -58 75 -59 75 -2
0 -3 -32 -3 -72 1 -48 -3 -72 -11 -75 -10 -4 -13 19 -13 92 0 119 10 121 84
23z m126 -208 c0 -7 -395 -10 -1165 -10 -770 0 -1165 3 -1165 10 0 7 395 10
1165 10 770 0 1165 -3 1165 -10z"/>
<path d="M860 1040 c-26 -26 -27 -90 -2 -113 23 -21 71 -22 100 -1 16 11 22
25 22 55 0 48 -27 79 -70 79 -17 0 -39 -9 -50 -20z"/>
<path d="M2515 1035 c-30 -30 -32 -64 -4 -99 41 -53 129 -18 129 51 0 32 -42
73 -75 73 -14 0 -37 -11 -50 -25z"/>
</g>
</svg>
